<?xml version="1.0" encoding="UTF-8"?>
<svg id="Layer_1" xmlns="http://www.w3.org/2000/svg" version="1.1" viewBox="0 0 429.99 480.99">
  <!-- Generator: Adobe Illustrator 29.6.0, SVG Export Plug-In . SVG Version: 2.1.1 Build 207)  -->
  <defs>
    <style>
      .st0 {
        fill: #de252a;
      }
    </style>
  </defs>
  <g id="Layer_2">
    <rect class="st0" x="338.08" y="29.64" width="86.91" height="86.91" rx="34.98" ry="34.98"/>
  </g>
  <g id="Layer_3">
    <rect class="st0" x="8.45" y="29.63" width="86.91" height="86.91" rx="34.98" ry="34.98"/>
  </g>
  <g id="Layer_4">
    <path class="st0" d="M261.67,81.57v-16.95c0-19.32-15.66-34.98-34.98-34.98h-16.95c-19.32,0-34.98,15.66-34.98,34.98v13.12c0,9.28-3.69,18.17-10.24,24.73l-80.24,80.24c-6.56,6.56-15.46,10.24-24.73,10.24h-16.12c-19.32,0-34.98,15.66-34.98,34.98v16.95c0,19.32,15.66,34.98,34.98,34.98h16.95c19.32,0,34.98-15.66,34.98-34.98v-20.62c0-9.28,3.69-18.17,10.24-24.73l72.75-72.75c6.56-6.56,15.46-10.24,24.73-10.24h23.61c19.32,0,34.98-15.66,34.98-34.98h0Z"/>
  </g>
  <g id="Layer_5">
    <path class="st0" d="M338.08,192.96h-128.34c-19.32,0-34.98,15.66-34.98,34.98v16.95c0,19.32,15.66,34.98,34.98,34.98h27.07c31.16,0,46.77,37.67,24.73,59.71l-13.95,13.95c-6.56,6.56-15.46,10.24-24.73,10.24h-13.12c-19.32,0-34.98,15.66-34.98,34.98v16.95c0,19.32,15.66,34.98,34.98,34.98h16.95c19.32,0,34.98-15.66,34.98-34.98v-23.61c0-9.28,3.69-18.17,10.24-24.73l6.46-6.46c22.03-22.03,59.71-6.43,59.71,24.73v30.07c0,19.32,15.66,34.98,34.98,34.98h16.95c19.32,0,34.98-15.66,34.98-34.98v-187.75c0-19.32-15.66-34.98-34.98-34.98h-51.93Z"/>
  </g>
  <g id="Layer_6">
    <path class="st0" d="M43.43,450.66h16.95c19.32,0,34.98-15.66,34.98-34.98v-16.95c0-19.32-15.66-34.98-34.98-34.98h-16.95c-19.32,0-34.98,15.66-34.98,34.98v16.95c0,19.32,15.66,34.98,34.98,34.98Z"/>
  </g>
</svg>