<?xml version="1.0" encoding="UTF-8"?>
<svg xmlns="http://www.w3.org/2000/svg" version="1.1" viewBox="0 0 1499.63 480.99">
  <!-- Generator: Adobe Illustrator 29.6.0, SVG Export Plug-In . SVG Version: 2.1.1 Build 207)  -->
  <defs>
    <style>
      .st0 {
        fill: #fff;
      }

      .st1 {
        fill: #de252a;
      }
    </style>
  </defs>
  <g id="Layer_2">
    <rect class="st1" x="343.08" y="29.64" width="86.91" height="86.91" rx="34.98" ry="34.98"/>
  </g>
  <g id="Layer_3">
    <rect class="st1" x="13.45" y="29.63" width="86.91" height="86.91" rx="34.98" ry="34.98"/>
  </g>
  <g id="Layer_4">
    <path class="st1" d="M266.67,81.57v-16.95c0-19.32-15.66-34.98-34.98-34.98h-16.95c-19.32,0-34.98,15.66-34.98,34.98v13.12c0,9.28-3.69,18.17-10.24,24.73l-80.24,80.24c-6.56,6.56-15.46,10.24-24.73,10.24h-16.12c-19.32,0-34.98,15.66-34.98,34.98v16.95c0,19.32,15.66,34.98,34.98,34.98h16.95c19.32,0,34.98-15.66,34.98-34.98v-20.62c0-9.28,3.69-18.17,10.24-24.73l72.75-72.75c6.56-6.56,15.46-10.24,24.73-10.24h23.61c19.32,0,34.98-15.66,34.98-34.98h0Z"/>
  </g>
  <g id="Layer_5">
    <path class="st1" d="M343.08,192.96h-128.34c-19.32,0-34.98,15.66-34.98,34.98v16.95c0,19.32,15.66,34.98,34.98,34.98h27.07c31.16,0,46.77,37.67,24.73,59.71l-13.95,13.95c-6.56,6.56-15.46,10.24-24.73,10.24h-13.12c-19.32,0-34.98,15.66-34.98,34.98v16.95c0,19.32,15.66,34.98,34.98,34.98h16.95c19.32,0,34.98-15.66,34.98-34.98v-23.61c0-9.28,3.69-18.17,10.24-24.73l6.46-6.46c22.03-22.03,59.71-6.43,59.71,24.73v30.07c0,19.32,15.66,34.98,34.98,34.98h16.95c19.32,0,34.98-15.66,34.98-34.98v-187.75c0-19.32-15.66-34.98-34.98-34.98h-51.93Z"/>
  </g>
  <g id="Layer_6">
    <path class="st1" d="M48.43,450.66h16.95c19.32,0,34.98-15.66,34.98-34.98v-16.95c0-19.32-15.66-34.98-34.98-34.98h-16.95c-19.32,0-34.98,15.66-34.98,34.98v16.95c0,19.32,15.66,34.98,34.98,34.98Z"/>
  </g>
  <g id="Layer_7">
    <g>
      <polygon class="st0" points="725.04 67.28 742.37 81.13 761.69 65.59 739.58 47.86 722.05 61.81 704.72 47.86 685.4 63.3 707.51 81.13 725.04 67.28"/>
      <path class="st0" d="M801.42,109.86c-1.06-3.42-2.37-6.69-3.93-9.81-1.56-3.12-3.29-6.11-5.18-8.96s-3.77-5.51-5.63-7.97l-20.32,23.7c2.59,2.39,4.76,5.13,6.52,8.22,1.76,3.09,2.85,6.03,3.29,8.81.43,2.79.08,5.13-1.05,7.02s-3.22,2.84-6.27,2.84l-6.77-.2c-4.98,0-9.13-.6-12.45-1.79-3.32-1.2-5.98-2.84-7.97-4.93-1.99-2.09-3.39-4.53-4.18-7.32-.8-2.79-1.1-5.79-.9-9.01.2-3.22.78-6.57,1.74-10.06.96-3.49,2.21-6.95,3.73-10.41l-25.79,16.63c-.8,2.06-1.51,3.83-2.14,5.33-.63,1.49-1.2,3.15-1.69,4.98-.5,1.83-.91,4.02-1.24,6.57-.33,2.56-.6,5.89-.8,10.01h-25.1c-4.98,0-9.13-.6-12.45-1.79-3.32-1.2-5.98-2.84-7.97-4.93-1.99-2.09-3.37-4.53-4.13-7.32s-1.06-5.79-.9-9.01.73-6.57,1.69-10.06,2.21-6.95,3.73-10.41l-25.79,16.63c-1.46,7.5-2.71,13.83-3.73,18.97-1.03,5.15-1.88,9.4-2.54,12.75-.66,3.35-1.18,5.94-1.54,7.77-.37,1.83-.65,3.17-.85,4.03-.2.86-.33,1.49-.4,1.89-3.98,5.18-8.33,9.26-13.05,12.25s-9.46,5-14.24,6.02c-4.78,1.03-9.48,1.15-14.09.35-4.62-.8-8.86-2.36-12.75-4.68-3.88-2.32-7.24-5.39-10.06-9.21s-4.85-8.22-6.08-13.2c-1.23-4.98-1.51-10.49-.85-16.53.66-6.04,2.55-12.51,5.68-19.42l-11.15,1.2c-6.17,8.7-10.64,16.91-13.39,24.65-2.76,7.74-4.1,14.89-4.03,21.46.07,6.57,1.33,12.53,3.78,17.88,2.46,5.34,5.76,9.94,9.91,13.79,4.15,3.85,9,6.92,14.54,9.21,5.54,2.29,11.42,3.7,17.63,4.23s12.56.13,19.07-1.2,12.81-3.7,18.92-7.12,11.83-7.93,17.18-13.54c5.34-5.61,9.97-12.4,13.89-20.37,2.65,1.66,5.53,2.97,8.61,3.93,3.09.96,6.42,1.48,10.01,1.54h39.14l8.76-15.04c3.32,4.38,7.39,7.95,12.2,10.71,4.81,2.76,10.37,4.2,16.68,4.33l18.03-.3c3.05-.07,6.17-.76,9.36-2.09s6.24-3.09,9.16-5.28,5.64-4.71,8.17-7.57c2.52-2.85,4.71-5.84,6.57-8.96,1.86-3.12,3.27-6.29,4.23-9.51.96-3.22,1.34-6.26,1.15-9.11-.27-3.65-.93-7.19-1.99-10.61l.02.02Z"/>
      <polygon class="st0" points="740.58 34.02 718.47 16.29 699.15 31.73 721.25 49.46 740.58 34.02"/>
      <path class="st0" d="M1128.78,106.37c-1.46-3.88-3.49-7.09-6.08-9.61s-5.59-4.41-9.01-5.68c-3.42-1.26-6.92-1.93-10.51-1.99h-105.17l.2-.6c-1,0-1.83-.18-2.49-.55-.66-.36-1.13-.83-1.39-1.39-.27-.56-.33-1.15-.2-1.74.13-.6.46-1.13,1-1.59,1.79-1.59,4.31-3.22,7.57-4.88,3.25-1.66,6.89-3.27,10.91-4.83,4.02-1.56,8.25-3.02,12.7-4.38,4.45-1.36,8.78-2.56,13-3.59s8.12-1.83,11.7-2.39c3.59-.56,6.57-.85,8.96-.85l21.81-30.27c-7.44.53-15.19,1.51-23.25,2.94-8.07,1.43-16.03,3.39-23.9,5.88-7.87,2.49-15.44,5.53-22.71,9.11-7.27,3.59-13.83,7.77-19.67,12.55-5.84,4.78-10.79,10.21-14.84,16.28-4.05,6.08-6.77,12.83-8.17,20.27-.53,3.39-.22,6.32.95,8.81,1.16,2.49,2.75,4.55,4.78,6.17,2.02,1.63,4.27,2.84,6.72,3.64,2.46.8,4.71,1.2,6.77,1.2h110.44c1.46.13,2.74.48,3.83,1.05,1.1.57,1.91,1.58,2.44,3.04.53,1,.71,2.06.55,3.19-.17,1.13-.68,2.19-1.54,3.19-.86,1-2.06,1.89-3.59,2.69-1.53.8-3.35,1.33-5.48,1.59h-120v-.1h-120.4c-.27-6.97-.47-13.88-.6-20.71-.13-6.84-.33-13.68-.6-20.52-.33-8.17-.6-16.35-.8-24.55-.2-8.2-.47-16.42-.8-24.65-2.46.93-5,1.81-7.62,2.64-2.62.83-5.13,1.68-7.52,2.54-2.52.93-5.01,1.86-7.47,2.79-2.46.93-4.95,1.79-7.47,2.59.8,8.23,1.51,16.43,2.14,24.6.63,8.17,1.28,16.4,1.94,24.7.33,5.11.7,10.21,1.1,15.29.4,5.08.76,10.17,1.1,15.29.33,5.84,1.05,10.67,2.14,14.49,1.1,3.82,2.59,6.86,4.48,9.11,1.89,2.26,4.17,3.85,6.82,4.78s5.74,1.39,9.26,1.39h240.51c3.12-.07,6.31-.76,9.56-2.09s6.36-3.1,9.31-5.33c2.95-2.22,5.73-4.78,8.32-7.67s4.81-5.93,6.67-9.11c1.86-3.19,3.27-6.41,4.23-9.66s1.34-6.34,1.15-9.26c.26-5.31-.33-9.91-1.79-13.79v-.03Z"/>
      <polygon class="st0" points="1215.92 216.37 1200.68 201.13 1183.75 218.06 1203.17 237.58 1218.51 222.34 1233.74 237.58 1250.67 220.55 1231.25 201.13 1215.92 216.37"/>
      <path class="st0" d="M1470.12,116.38c-.56-4.18-1.63-8.15-3.19-11.9-1.56-3.75-3.57-7-6.02-9.76-2.46-2.75-5.31-4.5-8.56-5.23-2.86-.6-6.03-.98-9.51-1.15-3.49-.16-7.14.07-10.95.7-3.82.63-7.7,1.71-11.65,3.24-3.95,1.53-7.82,3.68-11.6,6.47-3.78,2.79-7.39,6.27-10.81,10.46-3.42,4.18-6.49,9.2-9.21,15.04-.13,1.2-.63,2.37-1.49,3.54-.86,1.16-1.98,2.19-3.34,3.09-1.36.9-2.86,1.61-4.48,2.14-1.63.53-3.24.76-4.83.7l-7.47-.15v-.05h-54.97l-51.19-18.13-10.66,30.18c2.65.53,5.51,1.08,8.56,1.64s6.17,1.34,9.36,2.34,6.36,2.28,9.51,3.83c3.15,1.56,6.16,3.64,9.01,6.22-7.11,3.32-14.49,5.44-22.16,6.37s-15.04.73-22.11-.6-13.56-3.73-19.47-7.22c-5.91-3.49-10.66-7.98-14.24-13.49-3.59-5.51-5.73-11.98-6.42-19.42-.7-7.43.61-15.77,3.93-25l-12.05.9c-6.51,8.5-10.92,16.65-13.25,24.45-2.33,7.8-3.04,15.07-2.14,21.81s3.19,12.91,6.87,18.52c3.68,5.61,8.28,10.47,13.79,14.59,3.52,2.65,7.68,4.95,12.5,6.87,4.81,1.93,10.02,3.45,15.64,4.58,5.61,1.13,11.44,1.84,17.48,2.14,6.04.3,12.03.16,17.98-.4,5.94-.56,11.7-1.61,17.28-3.14,5.58-1.53,10.67-3.54,15.29-6.03,4.61-2.49,8.6-5.51,11.95-9.06,3.35-3.55,5.79-7.62,7.32-12.2h52.18v-.12l3.39-.18c2.46,0,4.78-.16,6.97-.5,2.19-.33,4.3-1.01,6.32-2.04,2.02-1.03,4-2.47,5.93-4.33s3.88-4.35,5.88-7.47c4.98,2.59,10.01,4.88,15.09,6.87,5.08,1.99,9.88,3.68,14.39,5.08,4.51,1.39,8.63,2.56,12.35,3.49,3.72.93,6.71,1.66,8.96,2.19,1.46.4,3.02.02,4.68-1.15,1.66-1.16,3.3-2.8,4.93-4.93,1.63-2.12,3.22-4.6,4.78-7.42,1.56-2.82,2.97-5.71,4.23-8.66,1.26-2.95,2.34-5.86,3.24-8.71.9-2.85,1.54-5.34,1.94-7.47.6-3.52.61-7.37.05-11.55h-.01ZM1412.41,124.35c.46-1.59,1.39-3.27,2.79-5.03,1.39-1.76,2.94-3.35,4.63-4.78,1.69-1.43,3.35-2.57,4.98-3.44,1.63-.86,2.87-1.16,3.73-.9,2.39.73,4.63,1.83,6.72,3.29,2.09,1.46,3.92,3.24,5.48,5.33,1.56,2.09,2.77,4.47,3.64,7.12.86,2.66,1.29,5.54,1.29,8.66l-33.26-10.26h0Z"/>
      <path class="st0" d="M1408.4,56.34l1.49-7.57c-6.58,3.52-12.92,6.92-19.07,10.21-6.14,3.29-12.5,6.65-19.07,10.1-.26,1.46-.5,2.71-.7,3.74s-.47,2.34-.8,3.93c6.45-3.45,12.8-6.85,19.07-10.2,6.28-3.35,12.63-6.76,19.07-10.21h.01Z"/>
      <path class="st0" d="M1408.4,56.34l2.46.48,2.51-12.76-4.67,2.5c-6.58,3.52-12.92,6.92-19.07,10.21h0c-6.13,3.28-12.48,6.65-19.05,10.1l-1.09.57-.21,1.22c-.25,1.44-.49,2.66-.69,3.69-.19,1-.46,2.31-.79,3.9l-1.08,5.24,4.71-2.52c6.45-3.45,12.8-6.85,19.07-10.2,6.28-3.35,12.63-6.76,19.08-10.21l1.05-.56.23-1.16-2.46-.48-1.18-2.21c-6.45,3.45-12.8,6.86-19.07,10.21-6.28,3.35-12.63,6.76-19.08,10.21l1.18,2.21,2.46.5c.33-1.59.6-2.91.8-3.96.2-1.03.44-2.29.7-3.78l-2.47-.43,1.16,2.22c6.58-3.45,12.95-6.82,19.09-10.12h0c6.15-3.29,12.5-6.69,19.08-10.21l-1.18-2.21-2.46-.48-1.49,7.57,2.46.48-1.18-2.21,1.18,2.21v-.02Z"/>
    </g>
  </g>
  <g id="Layer_8">
    <rect class="st0" x="535.75" y="254.53" width="931.58" height="8.53"/>
  </g>
  <g id="Layer_9">
    <g>
      <path class="st0" d="M676.9,306.74c-5.66-3.54-12.91-5.33-21.52-5.33-5.68,0-10.44.34-14.15,1-4.36.78-8,2.56-10.82,5.3-2.75,2.68-4.84,6.44-6.38,11.5-1.37,4.51-2.6,10.32-3.76,17.78l-8.09,52.59-8.46-51.88c-1.26-7.54-2.54-13.64-3.82-18.13-1.47-5.13-3.52-8.96-6.26-11.71-2.82-2.82-6.41-4.65-10.65-5.44-3.65-.68-8.17-1-13.81-1-3.64,0-7.23.38-10.7,1.12-3.69.8-7.04,2.16-9.97,4.07-3.1,2.01-5.61,4.75-7.46,8.13-1.85,3.39-2.78,7.56-2.78,12.39v109.96c0,3.78,2.64,6.43,6.43,6.43h23.18c3.79,0,6.43-2.64,6.43-6.43v-72.69l13.01,61.94.04.17c.44,1.75,1.1,3.59,1.95,5.44,1.01,2.18,2.51,4.16,4.48,5.88,1.9,1.66,4.27,3.03,7.06,4.08,2.82,1.07,6.23,1.59,10.42,1.59,4.53,0,8.25-.54,11.37-1.66,3.19-1.14,5.83-2.7,7.84-4.62,1.95-1.87,3.49-4.02,4.59-6.37,1.02-2.18,1.75-4.46,2.19-6.77,2.93-13.45,5.33-24.71,7.14-33.46,1.74-8.49,3.27-15.71,4.53-21.45.57-2.61,1.08-4.95,1.53-7.04v74.95c0,3.78,2.64,6.43,6.43,6.43h23.18c3.78,0,6.43-2.64,6.43-6.43v-110.51c0-9.19-3.22-15.86-9.57-19.83h-.03Z"/>
      <path class="st0" d="M788.24,315.57c-2.43-7.89-7.47-10.94-11.28-12.11-4.51-1.38-10.38-2.06-17.94-2.06s-13.05.67-17.49,2.06c-3.76,1.18-8.74,4.23-11.17,12.11l-37.64,120.88-.21,1.36c0,2.83,2.08,5.69,6.06,5.69h24.1c3.24,0,5.83-1.95,6.78-5.09l9.46-30.51h40.44l9.41,30.7.03.11c1,3,3.52,4.8,6.75,4.8h24.29c3.4,0,5.87-2.39,5.87-5.69l-.2-1.35-37.27-120.9h.01ZM749.51,373.35l9.61-31.28,9.61,31.28h-19.22Z"/>
      <path class="st0" d="M923.12,301.4h-25.03c-3.2,0-5.87,1.94-7.34,5.33l-24.2,54.05-25.1-54.43c-1.35-3.15-4.02-4.95-7.34-4.95h-25.59c-3.16,0-4.67,1.72-5.28,2.75-1.14,1.9-1.05,4.13.25,6.64l35.55,76.66.19.37c1.76,3.04,3.97,5.35,6.58,6.86.87.51,1.69.95,2.45,1.32v38.3c0,8.77,6.13,9.21,7.36,9.21h22.44c1.2,0,7.17-.44,7.17-9.21v-38.3c.81-.43,1.63-.93,2.48-1.52,2.04-1.42,4.03-3.46,6.09-6.24l.49-.84,34.49-76.95.08-.18c.65-1.63.71-3.32.18-4.9-.64-1.92-2.53-3.96-5.92-3.96h0Z"/>
      <path class="st0" d="M1083.7,301.4h-49.14c-6.7,0-13.09,1.39-18.99,4.14-5.89,2.74-11.02,6.63-15.26,11.55l-.02.03c-1.45,1.71-2.89,3.62-4.28,5.67-1.56,2.31-2.79,5.08-3.66,8.23-1.6,5.1-2.41,10.59-2.41,16.31v51.92c0,3.79.35,6.94,1.09,9.63.68,2.53,1.37,4.54,2.09,6.13,2.55,5.89,5.89,11.04,9.95,15.3,4.16,4.37,8.96,7.58,14.26,9.54,2.3.94,4.99,1.79,8.02,2.51,3.17.76,6.83,1.14,10.89,1.14h47.47c3.79,0,6.43-2.64,6.43-6.43v-20.4c0-3.78-2.64-6.43-6.43-6.43h-47.82c-3.11-.3-5.4-1.26-7-2.94-1.66-1.74-2.61-4.15-2.91-7.34v-46.71c0-5.58.97-10.07,2.9-13.36,1.63-2.79,3.96-4.46,7.3-5.24h47.53c3.79,0,6.43-2.64,6.43-6.43v-20.4c0-3.78-2.64-6.43-6.43-6.43h-.01Z"/>
      <path class="st0" d="M1191.91,315.57c-2.43-7.89-7.47-10.94-11.28-12.11-4.51-1.38-10.38-2.06-17.94-2.06s-13.05.67-17.49,2.06c-3.76,1.18-8.74,4.23-11.17,12.11l-37.64,120.88-.21,1.36c0,2.83,2.08,5.69,6.06,5.69h24.1c3.23,0,5.83-1.95,6.78-5.09l9.46-30.51h40.44l9.41,30.7.03.11c1,3,3.52,4.8,6.75,4.8h24.29c3.4,0,5.87-2.39,5.87-5.69l-.2-1.35-37.27-120.9h0ZM1153.17,373.35l9.61-31.28,9.61,31.28h-19.22Z"/>
      <path class="st0" d="M1341.06,379.1c-1.01-3.11-2.33-6.08-3.9-8.83-1.69-2.94-3.82-5.48-6.34-7.56-4.09-3.39-8.63-5.72-13.48-6.94-4.56-1.14-8.98-1.71-13.16-1.71h-20.77c-2.68,0-5.18-.12-7.41-.35-1.29-.13-2.24-.48-2.83-1.04-.79-.88-1.22-1.81-1.35-2.92-.23-1.9-.34-3.78-.34-5.59,0-1.09.05-2.18.16-3.25.07-.69.28-1.38.65-2.12l.08-.16c.28-.62.9-1.67,2.26-3.15.77-.84,1.2-.84,1.36-.84h53.59c3.79,0,6.43-2.64,6.43-6.43v-20.4c0-3.78-2.64-6.43-6.43-6.43h-61.38c-3.69,0-7.46.98-11.2,2.93-3.36,1.75-6.25,3.61-8.58,5.53-8.07,6.68-12.66,16.06-13.68,27.89-.27,1.32-.41,2.67-.41,4.01v3.52c0,3.08.24,6.21.7,9.3.47,3.14,1.21,6.27,2.22,9.3,1.02,3.07,2.34,5.99,3.92,8.66,1.69,2.86,3.81,5.36,6.32,7.42l.06.05c4.11,3.26,8.75,5.49,13.8,6.63,4.69,1.06,9.17,1.6,13.33,1.6h20.95c2.71,0,5.06.24,6.99.7,1.34.33,2.33.82,2.94,1.46.85,1.02,1.33,2.1,1.47,3.33.23,1.98.34,3.9.34,5.69,0,1.19-.05,2.35-.16,3.45-.07.72-.32,1.55-.73,2.45l-.05.12c-.47,1.13-1.28,2.44-2.39,3.91-.67.88-1.04.88-1.18.88h-59.71c-3.79,0-6.43,2.64-6.43,6.43v20.4c0,3.78,2.64,6.43,6.43,6.43h67.5c3.49,0,7.13-1.03,10.83-3.07,3.27-1.8,6.09-3.68,8.4-5.58l.1-.09c7.74-6.77,12.24-16.41,13.38-28.67.28-1.24.42-2.54.42-3.89v-3.89c0-3.01-.2-6.19-.59-9.45-.4-3.37-1.12-6.66-2.14-9.77v.04Z"/>
      <path class="st0" d="M1456.21,301.4h-23.18c-3.79,0-6.43,2.64-6.43,6.43v47.72h-38.5v-47.72c0-3.78-2.64-6.43-6.43-6.43h-23.18c-3.79,0-6.43,2.64-6.43,6.43v129.24c0,3.78,2.64,6.43,6.43,6.43h23.18c3.79,0,6.43-2.64,6.43-6.43v-48.27h38.5v48.27c0,3.78,2.64,6.43,6.43,6.43h23.18c3.79,0,6.43-2.64,6.43-6.43v-129.24c0-3.78-2.64-6.43-6.43-6.43h0Z"/>
    </g>
  </g>
</svg>