<svg id="Line_Expand" height="512" viewBox="0 0 64 64" width="512" xmlns="http://www.w3.org/2000/svg" data-name="Line Expand"><path d="m59.714 48.648-7.969-38.848c-.255-5.186-10.353-7.55-19.745-7.55s-19.49 2.364-19.745 7.55l-7.969 38.848a1.738 1.738 0 0 0 -.036.352c0 7.269 11.93 12.75 27.75 12.75s27.75-5.481 27.75-12.75a1.738 1.738 0 0 0 -.036-.352zm-27.714-42.898c10.721 0 16.25 2.979 16.25 4.25s-5.529 4.25-16.25 4.25c-1.464 0-2.821-.06-4.09-.159l4.043-2.623a1.75 1.75 0 0 0 -1.906-2.936l-7.413 4.811c-4.549-.983-6.884-2.52-6.884-3.343 0-1.271 5.529-4.25 16.25-4.25zm-9 30.725 2.25 2.25v6.525h-4.5v-6.525zm9 21.775c-14.12 0-24.011-4.759-24.246-9.093l7.178-34.99a19.658 19.658 0 0 0 6.318 2.461v16.647l-3.487 3.488a1.75 1.75 0 0 0 -.513 1.237v9a1.751 1.751 0 0 0 1.75 1.75h8a1.751 1.751 0 0 0 1.75-1.75v-9a1.75 1.75 0 0 0 -.513-1.237l-3.487-3.488v-16.009a53.367 53.367 0 0 0 7.25.484c6.53 0 13.4-1.143 17.068-3.583l7.178 34.99c-.235 4.334-10.126 9.093-24.246 9.093z"/></svg>